<svg width="296" height="41" viewBox="0 0 296 41" fill="none" xmlns="http://www.w3.org/2000/svg">
<rect x="15.117" y="12.3333" width="1.33333" height="8" transform="rotate(3.227 15.117 12.3333)" fill="#393939"/>
<rect x="18.2" y="28.0238" width="1.33333" height="8" transform="rotate(-54.4284 18.2 28.0238)" fill="#393939"/>
<rect x="4.50587" y="31.1074" width="1.33333" height="8" transform="rotate(-119.895 4.50587 31.1074)" fill="#393939"/>
<circle cx="15" cy="25" r="6.33333" fill="#9D4EB5"/>
<circle cx="16" cy="7" r="6" fill="#F7D15A"/>
<circle cx="28" cy="34.3333" r="6" fill="#212121"/>
<circle cx="3.66667" cy="31" r="3.66667" fill="#212121"/>
<path d="M71.128 7.872C71.368 7.536 71.616 7.296 71.872 7.152C72.144 7.008 72.52 6.936 73 6.936C73.464 6.936 73.824 7.072 74.08 7.344C74.336 7.6 74.464 7.96 74.464 8.424V22.608C74.464 23.072 74.32 23.448 74.032 23.736C73.76 24.008 73.4 24.144 72.952 24.144C72.488 24.144 72.12 24.008 71.848 23.736C71.576 23.448 71.44 23.072 71.44 22.608V11.568L63.4 22.92C63.064 23.416 62.744 23.744 62.44 23.904C62.136 24.064 61.752 24.144 61.288 24.144C60.824 24.144 60.464 24.016 60.208 23.76C59.952 23.488 59.824 23.12 59.824 22.656V8.472C59.824 8.008 59.96 7.64 60.232 7.368C60.52 7.08 60.888 6.936 61.336 6.936C61.8 6.936 62.168 7.08 62.44 7.368C62.728 7.64 62.872 8.008 62.872 8.472V19.488L71.128 7.872ZM79.2807 24.144C78.8327 24.144 78.4727 24.016 78.2007 23.76C77.9287 23.504 77.7927 23.16 77.7927 22.728V13.44C77.7927 13.008 77.9287 12.664 78.2007 12.408C78.4727 12.152 78.8327 12.024 79.2807 12.024C79.7447 12.024 80.1127 12.152 80.3847 12.408C80.6567 12.664 80.7927 13.008 80.7927 13.44V16.824H85.9287V13.44C85.9287 13.008 86.0647 12.664 86.3367 12.408C86.6087 12.152 86.9687 12.024 87.4167 12.024C87.8807 12.024 88.2487 12.152 88.5207 12.408C88.7927 12.664 88.9287 13.008 88.9287 13.44L88.9527 22.608C88.9527 23.072 88.8087 23.448 88.5207 23.736C88.2487 24.008 87.8887 24.144 87.4407 24.144C86.9767 24.144 86.6087 24.008 86.3367 23.736C86.0647 23.448 85.9287 23.072 85.9287 22.608V19.152H80.7927V22.728C80.7927 23.16 80.6567 23.504 80.3847 23.76C80.1127 24.016 79.7447 24.144 79.2807 24.144ZM97.2055 24.192C96.0375 24.192 95.0055 23.944 94.1095 23.448C93.2295 22.952 92.5495 22.248 92.0695 21.336C91.5895 20.424 91.3495 19.36 91.3495 18.144C91.3495 16.928 91.5975 15.856 92.0935 14.928C92.6055 13.984 93.3175 13.256 94.2295 12.744C95.1415 12.232 96.1895 11.976 97.3735 11.976C97.9975 11.976 98.6215 12.064 99.2455 12.24C99.8855 12.416 100.446 12.656 100.926 12.96C101.438 13.296 101.694 13.72 101.694 14.232C101.694 14.584 101.606 14.872 101.43 15.096C101.27 15.304 101.054 15.408 100.782 15.408C100.606 15.408 100.422 15.368 100.23 15.288C100.038 15.208 99.8455 15.112 99.6535 15C99.3015 14.792 98.9655 14.632 98.6455 14.52C98.3255 14.392 97.9575 14.328 97.5415 14.328C96.5495 14.328 95.7815 14.656 95.2375 15.312C94.7095 15.952 94.4455 16.88 94.4455 18.096C94.4455 19.296 94.7095 20.224 95.2375 20.88C95.7815 21.52 96.5495 21.84 97.5415 21.84C97.9415 21.84 98.2935 21.784 98.5975 21.672C98.9175 21.544 99.2695 21.376 99.6535 21.168C99.8935 21.024 100.102 20.92 100.278 20.856C100.454 20.776 100.63 20.736 100.806 20.736C101.062 20.736 101.278 20.848 101.454 21.072C101.63 21.296 101.718 21.576 101.718 21.912C101.718 22.184 101.654 22.424 101.526 22.632C101.414 22.824 101.222 23 100.95 23.16C100.454 23.48 99.8775 23.736 99.2215 23.928C98.5655 24.104 97.8935 24.192 97.2055 24.192ZM107.892 24.144C107.428 24.144 107.06 24.016 106.788 23.76C106.516 23.504 106.38 23.16 106.38 22.728V14.52H103.62C103.268 14.52 102.98 14.416 102.756 14.208C102.548 14 102.444 13.728 102.444 13.392C102.444 13.056 102.548 12.784 102.756 12.576C102.98 12.368 103.268 12.264 103.62 12.264H112.14C112.492 12.264 112.772 12.368 112.98 12.576C113.204 12.784 113.316 13.056 113.316 13.392C113.316 13.728 113.204 14 112.98 14.208C112.772 14.416 112.492 14.52 112.14 14.52H109.38V22.728C109.38 23.16 109.244 23.504 108.972 23.76C108.7 24.016 108.34 24.144 107.892 24.144ZM122.954 13.176C123.274 12.728 123.562 12.424 123.818 12.264C124.09 12.104 124.458 12.024 124.922 12.024C125.386 12.024 125.754 12.152 126.026 12.408C126.314 12.664 126.458 13.008 126.458 13.44V22.68C126.458 23.112 126.322 23.464 126.05 23.736C125.794 24.008 125.458 24.144 125.042 24.144C124.61 24.144 124.258 24.008 123.986 23.736C123.73 23.464 123.602 23.112 123.602 22.68V15.912L118.514 23.04C118.21 23.472 117.914 23.768 117.626 23.928C117.354 24.072 117.01 24.144 116.594 24.144C116.13 24.144 115.762 24.016 115.49 23.76C115.218 23.504 115.082 23.152 115.082 22.704V13.464C115.082 13.032 115.21 12.688 115.466 12.432C115.738 12.16 116.09 12.024 116.522 12.024C116.938 12.024 117.274 12.16 117.53 12.432C117.802 12.688 117.938 13.032 117.938 13.464V20.184L122.954 13.176ZM133.674 24.144C133.21 24.144 132.842 24.016 132.57 23.76C132.298 23.504 132.162 23.16 132.162 22.728V14.52H129.402C129.05 14.52 128.762 14.416 128.538 14.208C128.33 14 128.226 13.728 128.226 13.392C128.226 13.056 128.33 12.784 128.538 12.576C128.762 12.368 129.05 12.264 129.402 12.264H137.922C138.274 12.264 138.554 12.368 138.762 12.576C138.986 12.784 139.098 13.056 139.098 13.392C139.098 13.728 138.986 14 138.762 14.208C138.554 14.416 138.274 14.52 137.922 14.52H135.162V22.728C135.162 23.16 135.026 23.504 134.754 23.76C134.482 24.016 134.122 24.144 133.674 24.144ZM149.283 12.888C149.411 12.6 149.579 12.392 149.787 12.264C150.011 12.12 150.251 12.048 150.507 12.048C150.875 12.048 151.203 12.176 151.491 12.432C151.795 12.672 151.947 12.976 151.947 13.344C151.947 13.52 151.899 13.704 151.803 13.896L145.251 27.624C144.979 28.168 144.555 28.44 143.979 28.44C143.611 28.44 143.283 28.32 142.995 28.08C142.723 27.856 142.587 27.568 142.587 27.216C142.587 27.04 142.635 26.84 142.731 26.616L144.363 23.184L139.899 13.896C139.819 13.736 139.779 13.552 139.779 13.344C139.779 12.976 139.931 12.664 140.235 12.408C140.555 12.152 140.915 12.024 141.315 12.024C141.587 12.024 141.835 12.096 142.059 12.24C142.283 12.368 142.459 12.576 142.587 12.864L145.947 20.28L149.283 12.888ZM158.236 24.144C157.772 24.144 157.404 24.016 157.132 23.76C156.86 23.504 156.724 23.16 156.724 22.728V14.52H153.964C153.612 14.52 153.324 14.416 153.1 14.208C152.892 14 152.788 13.728 152.788 13.392C152.788 13.056 152.892 12.784 153.1 12.576C153.324 12.368 153.612 12.264 153.964 12.264H162.484C162.836 12.264 163.116 12.368 163.324 12.576C163.548 12.784 163.66 13.056 163.66 13.392C163.66 13.728 163.548 14 163.324 14.208C163.116 14.416 162.836 14.52 162.484 14.52H159.724V22.728C159.724 23.16 159.588 23.504 159.316 23.76C159.044 24.016 158.684 24.144 158.236 24.144ZM173.429 24.144C172.981 24.144 172.621 24.016 172.349 23.76C172.077 23.504 171.941 23.16 171.941 22.728V13.776C171.925 13.312 172.045 12.944 172.301 12.672C172.557 12.4 172.909 12.264 173.357 12.264H181.397C181.861 12.248 182.229 12.368 182.501 12.624C182.773 12.88 182.909 13.232 182.909 13.68V22.728C182.909 23.16 182.773 23.504 182.501 23.76C182.229 24.016 181.869 24.144 181.421 24.144C180.957 24.144 180.589 24.016 180.317 23.76C180.045 23.504 179.909 23.16 179.909 22.728V14.52H174.941V22.728C174.941 23.16 174.805 23.504 174.533 23.76C174.261 24.016 173.893 24.144 173.429 24.144ZM190.086 15.72C190.086 18.168 189.782 20.04 189.174 21.336C188.566 22.616 187.694 23.528 186.558 24.072C186.382 24.152 186.174 24.192 185.934 24.192C185.582 24.192 185.294 24.088 185.07 23.88C184.846 23.656 184.734 23.376 184.734 23.04C184.734 22.8 184.798 22.576 184.926 22.368C185.054 22.144 185.246 21.96 185.502 21.816C186.19 21.432 186.662 20.792 186.918 19.896C187.19 19 187.326 17.632 187.326 15.792V13.776C187.31 13.312 187.43 12.944 187.686 12.672C187.942 12.4 188.294 12.264 188.742 12.264H195.078C195.542 12.248 195.91 12.368 196.182 12.624C196.454 12.88 196.59 13.232 196.59 13.68V22.728C196.59 23.16 196.454 23.504 196.182 23.76C195.91 24.016 195.542 24.144 195.078 24.144C194.63 24.144 194.27 24.016 193.998 23.76C193.726 23.504 193.59 23.16 193.59 22.728V14.52H190.086V15.72ZM204.734 11.976C206.366 11.976 207.574 12.384 208.358 13.2C209.158 14 209.558 15.224 209.558 16.872V22.728C209.558 23.16 209.43 23.504 209.174 23.76C208.918 24 208.566 24.12 208.118 24.12C207.702 24.12 207.358 23.992 207.086 23.736C206.83 23.48 206.702 23.144 206.702 22.728V22.2C206.43 22.824 205.998 23.312 205.406 23.664C204.83 24.016 204.158 24.192 203.39 24.192C202.606 24.192 201.894 24.032 201.254 23.712C200.614 23.392 200.11 22.952 199.742 22.392C199.374 21.832 199.19 21.208 199.19 20.52C199.19 19.656 199.406 18.976 199.838 18.48C200.286 17.984 201.006 17.624 201.998 17.4C202.99 17.176 204.358 17.064 206.102 17.064H206.702V16.512C206.702 15.728 206.534 15.16 206.198 14.808C205.862 14.44 205.318 14.256 204.566 14.256C204.102 14.256 203.63 14.328 203.15 14.472C202.67 14.6 202.102 14.792 201.446 15.048C201.03 15.256 200.726 15.36 200.534 15.36C200.246 15.36 200.006 15.256 199.814 15.048C199.638 14.84 199.55 14.568 199.55 14.232C199.55 13.96 199.614 13.728 199.742 13.536C199.886 13.328 200.118 13.136 200.438 12.96C200.998 12.656 201.662 12.416 202.43 12.24C203.214 12.064 203.982 11.976 204.734 11.976ZM203.99 22.032C204.79 22.032 205.438 21.768 205.934 21.24C206.446 20.696 206.702 20 206.702 19.152V18.648H206.27C205.198 18.648 204.366 18.696 203.774 18.792C203.182 18.888 202.758 19.056 202.502 19.296C202.246 19.536 202.118 19.864 202.118 20.28C202.118 20.792 202.294 21.216 202.646 21.552C203.014 21.872 203.462 22.032 203.99 22.032ZM217.815 24.192C216.647 24.192 215.615 23.944 214.719 23.448C213.839 22.952 213.159 22.248 212.679 21.336C212.199 20.424 211.959 19.36 211.959 18.144C211.959 16.928 212.207 15.856 212.703 14.928C213.215 13.984 213.927 13.256 214.839 12.744C215.751 12.232 216.799 11.976 217.983 11.976C218.607 11.976 219.231 12.064 219.855 12.24C220.495 12.416 221.055 12.656 221.535 12.96C222.047 13.296 222.303 13.72 222.303 14.232C222.303 14.584 222.215 14.872 222.039 15.096C221.879 15.304 221.663 15.408 221.391 15.408C221.215 15.408 221.031 15.368 220.839 15.288C220.647 15.208 220.455 15.112 220.263 15C219.911 14.792 219.575 14.632 219.255 14.52C218.935 14.392 218.567 14.328 218.151 14.328C217.159 14.328 216.391 14.656 215.847 15.312C215.319 15.952 215.055 16.88 215.055 18.096C215.055 19.296 215.319 20.224 215.847 20.88C216.391 21.52 217.159 21.84 218.151 21.84C218.551 21.84 218.903 21.784 219.207 21.672C219.527 21.544 219.879 21.376 220.263 21.168C220.503 21.024 220.711 20.92 220.887 20.856C221.063 20.776 221.239 20.736 221.415 20.736C221.671 20.736 221.887 20.848 222.063 21.072C222.239 21.296 222.327 21.576 222.327 21.912C222.327 22.184 222.263 22.424 222.135 22.632C222.023 22.824 221.831 23 221.559 23.16C221.063 23.48 220.487 23.736 219.831 23.928C219.175 24.104 218.503 24.192 217.815 24.192ZM228.502 24.144C228.038 24.144 227.67 24.016 227.398 23.76C227.126 23.504 226.99 23.16 226.99 22.728V14.52H224.23C223.878 14.52 223.59 14.416 223.366 14.208C223.158 14 223.054 13.728 223.054 13.392C223.054 13.056 223.158 12.784 223.366 12.576C223.59 12.368 223.878 12.264 224.23 12.264H232.75C233.102 12.264 233.382 12.368 233.59 12.576C233.814 12.784 233.926 13.056 233.926 13.392C233.926 13.728 233.814 14 233.59 14.208C233.382 14.416 233.102 14.52 232.75 14.52H229.99V22.728C229.99 23.16 229.854 23.504 229.582 23.76C229.31 24.016 228.95 24.144 228.502 24.144ZM247.211 12.024C247.675 12.024 248.043 12.152 248.315 12.408C248.587 12.664 248.723 13.008 248.723 13.44V22.752C248.723 23.152 248.595 23.488 248.339 23.76C248.083 24.016 247.755 24.144 247.355 24.144C246.955 24.144 246.619 24.016 246.347 23.76C246.091 23.488 245.963 23.152 245.963 22.752L245.987 16.704L243.587 21.168C243.443 21.424 243.251 21.632 243.011 21.792C242.771 21.936 242.507 22.008 242.219 22.008C241.611 22.008 241.147 21.728 240.827 21.168L238.427 16.704L238.451 22.752C238.451 23.152 238.315 23.488 238.043 23.76C237.787 24.016 237.459 24.144 237.059 24.144C236.659 24.144 236.331 24.016 236.075 23.76C235.819 23.488 235.691 23.152 235.691 22.752V13.536C235.691 13.072 235.811 12.704 236.051 12.432C236.307 12.16 236.659 12.024 237.107 12.024C237.539 12.024 237.899 12.096 238.187 12.24C238.475 12.368 238.731 12.648 238.955 13.08L242.219 19.248L245.363 13.272C245.619 12.808 245.875 12.488 246.131 12.312C246.403 12.12 246.763 12.024 247.211 12.024ZM256.859 11.976C258.491 11.976 259.699 12.384 260.483 13.2C261.283 14 261.683 15.224 261.683 16.872V22.728C261.683 23.16 261.555 23.504 261.299 23.76C261.043 24 260.691 24.12 260.243 24.12C259.827 24.12 259.483 23.992 259.211 23.736C258.955 23.48 258.827 23.144 258.827 22.728V22.2C258.555 22.824 258.123 23.312 257.531 23.664C256.955 24.016 256.283 24.192 255.515 24.192C254.731 24.192 254.019 24.032 253.379 23.712C252.739 23.392 252.235 22.952 251.867 22.392C251.499 21.832 251.315 21.208 251.315 20.52C251.315 19.656 251.531 18.976 251.963 18.48C252.411 17.984 253.131 17.624 254.123 17.4C255.115 17.176 256.483 17.064 258.227 17.064H258.827V16.512C258.827 15.728 258.659 15.16 258.323 14.808C257.987 14.44 257.443 14.256 256.691 14.256C256.227 14.256 255.755 14.328 255.275 14.472C254.795 14.6 254.227 14.792 253.571 15.048C253.155 15.256 252.851 15.36 252.659 15.36C252.371 15.36 252.131 15.256 251.939 15.048C251.763 14.84 251.675 14.568 251.675 14.232C251.675 13.96 251.739 13.728 251.867 13.536C252.011 13.328 252.243 13.136 252.563 12.96C253.123 12.656 253.787 12.416 254.555 12.24C255.339 12.064 256.107 11.976 256.859 11.976ZM256.115 22.032C256.915 22.032 257.563 21.768 258.059 21.24C258.571 20.696 258.827 20 258.827 19.152V18.648H258.395C257.323 18.648 256.491 18.696 255.899 18.792C255.307 18.888 254.883 19.056 254.627 19.296C254.371 19.536 254.243 19.864 254.243 20.28C254.243 20.792 254.419 21.216 254.771 21.552C255.139 21.872 255.587 22.032 256.115 22.032ZM269.94 24.192C268.772 24.192 267.74 23.944 266.844 23.448C265.964 22.952 265.284 22.248 264.804 21.336C264.324 20.424 264.084 19.36 264.084 18.144C264.084 16.928 264.332 15.856 264.828 14.928C265.34 13.984 266.052 13.256 266.964 12.744C267.876 12.232 268.924 11.976 270.108 11.976C270.732 11.976 271.356 12.064 271.98 12.24C272.62 12.416 273.18 12.656 273.66 12.96C274.172 13.296 274.428 13.72 274.428 14.232C274.428 14.584 274.34 14.872 274.164 15.096C274.004 15.304 273.788 15.408 273.516 15.408C273.34 15.408 273.156 15.368 272.964 15.288C272.772 15.208 272.58 15.112 272.388 15C272.036 14.792 271.7 14.632 271.38 14.52C271.06 14.392 270.692 14.328 270.276 14.328C269.284 14.328 268.516 14.656 267.972 15.312C267.444 15.952 267.18 16.88 267.18 18.096C267.18 19.296 267.444 20.224 267.972 20.88C268.516 21.52 269.284 21.84 270.276 21.84C270.676 21.84 271.028 21.784 271.332 21.672C271.652 21.544 272.004 21.376 272.388 21.168C272.628 21.024 272.836 20.92 273.012 20.856C273.188 20.776 273.364 20.736 273.54 20.736C273.796 20.736 274.012 20.848 274.188 21.072C274.364 21.296 274.452 21.576 274.452 21.912C274.452 22.184 274.388 22.424 274.26 22.632C274.148 22.824 273.956 23 273.684 23.16C273.188 23.48 272.612 23.736 271.956 23.928C271.3 24.104 270.628 24.192 269.94 24.192ZM281.659 24.192C280.491 24.192 279.459 23.944 278.563 23.448C277.683 22.952 277.003 22.248 276.523 21.336C276.043 20.424 275.803 19.36 275.803 18.144C275.803 16.928 276.051 15.856 276.547 14.928C277.059 13.984 277.771 13.256 278.683 12.744C279.595 12.232 280.643 11.976 281.827 11.976C282.451 11.976 283.075 12.064 283.699 12.24C284.339 12.416 284.899 12.656 285.379 12.96C285.891 13.296 286.147 13.72 286.147 14.232C286.147 14.584 286.059 14.872 285.883 15.096C285.723 15.304 285.507 15.408 285.235 15.408C285.059 15.408 284.875 15.368 284.683 15.288C284.491 15.208 284.299 15.112 284.107 15C283.755 14.792 283.419 14.632 283.099 14.52C282.779 14.392 282.411 14.328 281.995 14.328C281.003 14.328 280.235 14.656 279.691 15.312C279.163 15.952 278.899 16.88 278.899 18.096C278.899 19.296 279.163 20.224 279.691 20.88C280.235 21.52 281.003 21.84 281.995 21.84C282.395 21.84 282.747 21.784 283.051 21.672C283.371 21.544 283.723 21.376 284.107 21.168C284.347 21.024 284.555 20.92 284.731 20.856C284.907 20.776 285.083 20.736 285.259 20.736C285.515 20.736 285.731 20.848 285.907 21.072C286.083 21.296 286.171 21.576 286.171 21.912C286.171 22.184 286.107 22.424 285.979 22.632C285.867 22.824 285.675 23 285.403 23.16C284.907 23.48 284.331 23.736 283.675 23.928C283.019 24.104 282.347 24.192 281.659 24.192Z" fill="#121212"/>
<path d="M63.956 30.348C64.036 30.236 64.12 30.156 64.208 30.108C64.296 30.06 64.4 30.036 64.52 30.036C64.672 30.036 64.792 30.084 64.88 30.18C64.976 30.276 65.024 30.396 65.024 30.54V35.592C65.024 35.728 64.98 35.84 64.892 35.928C64.804 36.016 64.692 36.06 64.556 36.06C64.428 36.06 64.316 36.016 64.22 35.928C64.132 35.832 64.088 35.72 64.088 35.592V31.404L60.932 35.772C60.796 35.964 60.616 36.06 60.392 36.06C60.24 36.06 60.116 36.016 60.02 35.928C59.924 35.832 59.876 35.712 59.876 35.568V30.516C59.876 30.38 59.92 30.268 60.008 30.18C60.104 30.084 60.22 30.036 60.356 30.036C60.492 30.036 60.604 30.084 60.692 30.18C60.78 30.268 60.824 30.38 60.824 30.516V34.644L63.956 30.348ZM72.2741 30.036C72.4261 30.036 72.5461 30.08 72.6341 30.168C72.7301 30.256 72.7781 30.376 72.7781 30.528V35.604C72.7781 35.74 72.7341 35.852 72.6461 35.94C72.5661 36.02 72.4581 36.06 72.3221 36.06C72.1861 36.06 72.0741 36.02 71.9861 35.94C71.9061 35.852 71.8661 35.74 71.8661 35.604L71.8781 31.704L70.2221 34.8C70.1821 34.88 70.1221 34.944 70.0421 34.992C69.9701 35.04 69.8861 35.064 69.7901 35.064C69.6941 35.064 69.6061 35.04 69.5261 34.992C69.4541 34.944 69.3981 34.88 69.3581 34.8L67.6901 31.704L67.7021 35.604C67.7021 35.74 67.6581 35.852 67.5701 35.94C67.4901 36.02 67.3821 36.06 67.2461 36.06C67.1101 36.06 66.9981 36.02 66.9101 35.94C66.8301 35.852 66.7901 35.74 66.7901 35.604V30.54C66.7901 30.388 66.8341 30.268 66.9221 30.18C67.0101 30.084 67.1301 30.036 67.2821 30.036C67.5221 30.036 67.6981 30.144 67.8101 30.36L69.7901 34.08L71.7461 30.384C71.8661 30.152 72.0421 30.036 72.2741 30.036ZM79.0724 34.644C79.1604 34.644 79.2364 34.68 79.3004 34.752C79.3644 34.824 79.3964 34.916 79.3964 35.028C79.3964 35.228 79.2564 35.412 78.9764 35.58C78.6884 35.748 78.3844 35.876 78.0644 35.964C77.7444 36.044 77.4324 36.084 77.1284 36.084C76.2244 36.084 75.5084 35.816 74.9804 35.28C74.4604 34.744 74.2004 34.004 74.2004 33.06C74.2004 32.46 74.3164 31.932 74.5484 31.476C74.7804 31.012 75.1044 30.652 75.5204 30.396C75.9444 30.14 76.4244 30.012 76.9604 30.012C77.7204 30.012 78.3244 30.26 78.7724 30.756C79.2204 31.252 79.4444 31.924 79.4444 32.772C79.4444 32.932 79.4124 33.048 79.3484 33.12C79.2844 33.192 79.1804 33.228 79.0364 33.228H75.1724C75.2444 34.604 75.8964 35.292 77.1284 35.292C77.4404 35.292 77.7084 35.252 77.9324 35.172C78.1564 35.084 78.3964 34.968 78.6524 34.824C78.8604 34.704 79.0004 34.644 79.0724 34.644ZM76.9724 30.768C76.4604 30.768 76.0484 30.928 75.7364 31.248C75.4324 31.568 75.2524 32.02 75.1964 32.604H78.5924C78.5764 32.012 78.4284 31.56 78.1484 31.248C77.8684 30.928 77.4764 30.768 76.9724 30.768ZM81.3446 36.06C81.1926 36.06 81.0726 36.02 80.9846 35.94C80.8966 35.852 80.8526 35.736 80.8526 35.592V30.516C80.8526 30.372 80.8966 30.256 80.9846 30.168C81.0726 30.08 81.1926 30.036 81.3446 30.036C81.4886 30.036 81.6046 30.08 81.6926 30.168C81.7806 30.256 81.8246 30.372 81.8246 30.516V32.604H84.9686V30.516C84.9686 30.372 85.0126 30.256 85.1006 30.168C85.1966 30.08 85.3166 30.036 85.4606 30.036C85.6046 30.036 85.7206 30.08 85.8086 30.168C85.8966 30.256 85.9406 30.372 85.9406 30.516L85.9526 35.568C85.9526 35.72 85.9086 35.84 85.8206 35.928C85.7326 36.016 85.6126 36.06 85.4606 36.06C85.3166 36.06 85.1966 36.016 85.1006 35.928C85.0126 35.84 84.9686 35.72 84.9686 35.568V33.384H81.8246V35.592C81.8246 35.736 81.7806 35.852 81.6926 35.94C81.6046 36.02 81.4886 36.06 81.3446 36.06ZM91.788 30.348C91.868 30.236 91.952 30.156 92.04 30.108C92.128 30.06 92.232 30.036 92.352 30.036C92.504 30.036 92.624 30.084 92.712 30.18C92.808 30.276 92.856 30.396 92.856 30.54V35.592C92.856 35.728 92.812 35.84 92.724 35.928C92.636 36.016 92.524 36.06 92.388 36.06C92.26 36.06 92.148 36.016 92.052 35.928C91.964 35.832 91.92 35.72 91.92 35.592V31.404L88.764 35.772C88.628 35.964 88.448 36.06 88.224 36.06C88.072 36.06 87.948 36.016 87.852 35.928C87.756 35.832 87.708 35.712 87.708 35.568V30.516C87.708 30.38 87.752 30.268 87.84 30.18C87.936 30.084 88.052 30.036 88.188 30.036C88.324 30.036 88.436 30.084 88.524 30.18C88.612 30.268 88.656 30.38 88.656 30.516V34.644L91.788 30.348ZM98.3638 36.06C98.2198 36.06 98.1038 36.016 98.0158 35.928C97.9278 35.84 97.8838 35.72 97.8838 35.568V28.02C97.8838 27.876 97.9278 27.76 98.0158 27.672C98.1038 27.584 98.2198 27.54 98.3638 27.54H102.768C102.896 27.54 102.996 27.58 103.068 27.66C103.148 27.732 103.188 27.828 103.188 27.948C103.188 28.076 103.148 28.18 103.068 28.26C102.996 28.332 102.896 28.368 102.768 28.368H98.8558V35.568C98.8558 35.72 98.8118 35.84 98.7238 35.928C98.6358 36.016 98.5158 36.06 98.3638 36.06ZM104.794 36.06C104.602 36.06 104.442 36 104.314 35.88C104.186 35.752 104.122 35.588 104.122 35.388C104.122 35.188 104.186 35.024 104.314 34.896C104.442 34.768 104.602 34.704 104.794 34.704C104.978 34.704 105.13 34.768 105.25 34.896C105.378 35.024 105.442 35.188 105.442 35.388C105.442 35.588 105.378 35.752 105.25 35.88C105.13 36 104.978 36.06 104.794 36.06ZM110.413 36.096C109.613 36.096 108.921 35.924 108.337 35.58C107.753 35.228 107.301 34.728 106.981 34.08C106.669 33.424 106.513 32.652 106.513 31.764C106.513 30.884 106.669 30.12 106.981 29.472C107.301 28.816 107.753 28.316 108.337 27.972C108.921 27.62 109.613 27.444 110.413 27.444C110.949 27.444 111.453 27.532 111.925 27.708C112.405 27.876 112.821 28.12 113.173 28.44C113.301 28.56 113.365 28.7 113.365 28.86C113.365 28.972 113.333 29.072 113.269 29.16C113.205 29.24 113.129 29.28 113.041 29.28C112.945 29.28 112.829 29.236 112.693 29.148C112.285 28.828 111.913 28.604 111.577 28.476C111.249 28.348 110.869 28.284 110.437 28.284C109.509 28.284 108.793 28.588 108.289 29.196C107.793 29.796 107.545 30.652 107.545 31.764C107.545 32.884 107.793 33.748 108.289 34.356C108.793 34.956 109.509 35.256 110.437 35.256C110.861 35.256 111.241 35.192 111.577 35.064C111.913 34.936 112.285 34.712 112.693 34.392C112.829 34.304 112.945 34.26 113.041 34.26C113.129 34.26 113.205 34.3 113.269 34.38C113.333 34.46 113.365 34.56 113.365 34.68C113.365 34.84 113.301 34.98 113.173 35.1C112.821 35.42 112.405 35.668 111.925 35.844C111.453 36.012 110.949 36.096 110.413 36.096ZM115.4 36.06C115.208 36.06 115.048 36 114.92 35.88C114.792 35.752 114.728 35.588 114.728 35.388C114.728 35.188 114.792 35.024 114.92 34.896C115.048 34.768 115.208 34.704 115.4 34.704C115.584 34.704 115.736 34.768 115.856 34.896C115.984 35.024 116.048 35.188 116.048 35.388C116.048 35.588 115.984 35.752 115.856 35.88C115.736 36 115.584 36.06 115.4 36.06ZM121.379 36.06C121.235 36.06 121.119 36.016 121.031 35.928C120.943 35.832 120.899 35.708 120.899 35.556V28.032C120.899 27.888 120.943 27.772 121.031 27.684C121.127 27.588 121.251 27.54 121.403 27.54H127.259C127.411 27.54 127.531 27.588 127.619 27.684C127.707 27.772 127.751 27.888 127.751 28.032V35.568C127.751 35.72 127.707 35.84 127.619 35.928C127.531 36.016 127.415 36.06 127.271 36.06C127.119 36.06 126.999 36.016 126.911 35.928C126.823 35.84 126.779 35.72 126.779 35.568V28.368H121.871V35.568C121.871 35.72 121.827 35.84 121.739 35.928C121.651 36.016 121.531 36.06 121.379 36.06ZM134.221 34.644C134.309 34.644 134.385 34.68 134.449 34.752C134.513 34.824 134.545 34.916 134.545 35.028C134.545 35.228 134.405 35.412 134.125 35.58C133.837 35.748 133.533 35.876 133.213 35.964C132.893 36.044 132.581 36.084 132.277 36.084C131.373 36.084 130.657 35.816 130.129 35.28C129.609 34.744 129.349 34.004 129.349 33.06C129.349 32.46 129.465 31.932 129.697 31.476C129.929 31.012 130.253 30.652 130.669 30.396C131.093 30.14 131.573 30.012 132.109 30.012C132.869 30.012 133.473 30.26 133.921 30.756C134.369 31.252 134.593 31.924 134.593 32.772C134.593 32.932 134.561 33.048 134.497 33.12C134.433 33.192 134.329 33.228 134.185 33.228H130.321C130.393 34.604 131.045 35.292 132.277 35.292C132.589 35.292 132.857 35.252 133.081 35.172C133.305 35.084 133.545 34.968 133.801 34.824C134.009 34.704 134.149 34.644 134.221 34.644ZM132.121 30.768C131.609 30.768 131.197 30.928 130.885 31.248C130.581 31.568 130.401 32.02 130.345 32.604H133.741C133.725 32.012 133.577 31.56 133.297 31.248C133.017 30.928 132.625 30.768 132.121 30.768ZM137.778 36.06C137.634 36.06 137.518 36.02 137.43 35.94C137.342 35.852 137.298 35.736 137.298 35.592V30.924H135.582C135.462 30.924 135.366 30.888 135.294 30.816C135.222 30.744 135.186 30.652 135.186 30.54C135.186 30.428 135.222 30.336 135.294 30.264C135.366 30.192 135.462 30.156 135.582 30.156H139.974C140.094 30.156 140.19 30.192 140.262 30.264C140.334 30.336 140.37 30.428 140.37 30.54C140.37 30.652 140.334 30.744 140.262 30.816C140.19 30.888 140.094 30.924 139.974 30.924H138.27V35.592C138.27 35.736 138.222 35.852 138.126 35.94C138.038 36.02 137.922 36.06 137.778 36.06ZM144.309 30.012C144.821 30.012 145.273 30.14 145.665 30.396C146.057 30.652 146.361 31.012 146.577 31.476C146.793 31.932 146.901 32.464 146.901 33.072C146.901 33.68 146.793 34.212 146.577 34.668C146.361 35.116 146.057 35.464 145.665 35.712C145.281 35.96 144.829 36.084 144.309 36.084C143.853 36.084 143.453 35.984 143.109 35.784C142.773 35.584 142.517 35.3 142.341 34.932V37.752C142.341 37.896 142.297 38.008 142.209 38.088C142.129 38.176 142.013 38.22 141.861 38.22C141.709 38.22 141.589 38.176 141.501 38.088C141.413 38 141.369 37.888 141.369 37.752V30.516C141.369 30.372 141.413 30.256 141.501 30.168C141.589 30.08 141.709 30.036 141.861 30.036C142.013 30.036 142.129 30.08 142.209 30.168C142.297 30.256 142.341 30.372 142.341 30.516V31.164C142.517 30.796 142.773 30.512 143.109 30.312C143.453 30.112 143.853 30.012 144.309 30.012ZM144.117 35.28C144.685 35.28 145.125 35.088 145.437 34.704C145.749 34.32 145.905 33.776 145.905 33.072C145.905 32.368 145.749 31.82 145.437 31.428C145.125 31.028 144.685 30.828 144.117 30.828C143.549 30.828 143.109 31.02 142.797 31.404C142.493 31.788 142.341 32.336 142.341 33.048C142.341 33.76 142.493 34.312 142.797 34.704C143.109 35.088 143.549 35.28 144.117 35.28ZM150.777 36.084C150.225 36.084 149.737 35.96 149.313 35.712C148.897 35.464 148.573 35.112 148.341 34.656C148.117 34.192 148.005 33.656 148.005 33.048C148.005 32.44 148.117 31.908 148.341 31.452C148.573 30.988 148.897 30.632 149.313 30.384C149.737 30.136 150.225 30.012 150.777 30.012C151.329 30.012 151.817 30.136 152.241 30.384C152.665 30.632 152.989 30.988 153.213 31.452C153.445 31.908 153.561 32.44 153.561 33.048C153.561 33.656 153.445 34.192 153.213 34.656C152.989 35.112 152.665 35.464 152.241 35.712C151.817 35.96 151.329 36.084 150.777 36.084ZM150.777 35.28C151.353 35.28 151.793 35.092 152.097 34.716C152.409 34.332 152.565 33.776 152.565 33.048C152.565 32.336 152.409 31.788 152.097 31.404C151.785 31.012 151.345 30.816 150.777 30.816C150.209 30.816 149.769 31.012 149.457 31.404C149.145 31.788 148.989 32.336 148.989 33.048C148.989 33.768 149.141 34.32 149.445 34.704C149.757 35.088 150.201 35.28 150.777 35.28ZM155.489 36C155.337 36 155.213 35.956 155.117 35.868C155.029 35.78 154.985 35.664 154.985 35.52V30.66C154.985 30.508 155.029 30.388 155.117 30.3C155.205 30.204 155.325 30.156 155.477 30.156H157.553C158.193 30.156 158.689 30.28 159.041 30.528C159.393 30.776 159.569 31.148 159.569 31.644C159.569 31.932 159.485 32.2 159.317 32.448C159.149 32.696 158.893 32.88 158.549 33C158.909 33.064 159.193 33.216 159.401 33.456C159.617 33.696 159.725 34 159.725 34.368C159.725 34.64 159.649 34.9 159.497 35.148C159.353 35.396 159.121 35.6 158.801 35.76C158.481 35.92 158.081 36 157.601 36H155.489ZM157.481 32.676C157.817 32.676 158.089 32.592 158.297 32.424C158.505 32.248 158.609 32.012 158.609 31.716C158.609 31.156 158.221 30.876 157.445 30.876H155.957V32.676H157.481ZM157.505 35.28C158.329 35.28 158.741 34.964 158.741 34.332C158.741 34.012 158.621 33.772 158.381 33.612C158.141 33.452 157.813 33.372 157.397 33.372H155.957V35.28H157.505ZM163.538 30.012C165.002 30.012 165.734 30.78 165.734 32.316V35.58C165.734 35.724 165.69 35.84 165.602 35.928C165.522 36.016 165.41 36.06 165.266 36.06C165.122 36.06 165.006 36.016 164.918 35.928C164.83 35.84 164.786 35.724 164.786 35.58V35.004C164.634 35.348 164.402 35.616 164.09 35.808C163.778 35.992 163.418 36.084 163.01 36.084C162.634 36.084 162.286 36.008 161.966 35.856C161.654 35.704 161.406 35.492 161.222 35.22C161.038 34.948 160.946 34.648 160.946 34.32C160.946 33.88 161.058 33.54 161.282 33.3C161.506 33.052 161.874 32.876 162.386 32.772C162.898 32.66 163.61 32.604 164.522 32.604H164.786V32.208C164.786 31.728 164.686 31.376 164.486 31.152C164.294 30.928 163.978 30.816 163.538 30.816C162.994 30.816 162.442 30.964 161.882 31.26C161.666 31.396 161.514 31.464 161.426 31.464C161.33 31.464 161.25 31.428 161.186 31.356C161.122 31.284 161.09 31.192 161.09 31.08C161.09 30.968 161.122 30.872 161.186 30.792C161.258 30.704 161.37 30.616 161.522 30.528C161.802 30.368 162.118 30.244 162.47 30.156C162.83 30.06 163.186 30.012 163.538 30.012ZM163.142 35.316C163.622 35.316 164.014 35.156 164.318 34.836C164.63 34.508 164.786 34.088 164.786 33.576V33.228H164.57C163.866 33.228 163.33 33.26 162.962 33.324C162.594 33.38 162.33 33.48 162.17 33.624C162.018 33.76 161.942 33.964 161.942 34.236C161.942 34.548 162.054 34.808 162.278 35.016C162.51 35.216 162.798 35.316 163.142 35.316Z" fill="#D6D6D6"/>
</svg>
