<svg width="233" height="40" viewBox="0 0 233 40" fill="none" xmlns="http://www.w3.org/2000/svg">
<path d="M13.584 7.656C13.76 7.4 13.952 7.224 14.16 7.128C14.368 7.016 14.656 6.96 15.024 6.96C15.392 6.96 15.68 7.064 15.888 7.272C16.112 7.48 16.224 7.776 16.224 8.16V22.896C16.224 23.264 16.112 23.56 15.888 23.784C15.664 24.008 15.368 24.12 15 24.12C14.632 24.12 14.336 24.008 14.112 23.784C13.888 23.56 13.776 23.264 13.776 22.896V10.752L4.752 23.232C4.496 23.584 4.256 23.824 4.032 23.952C3.808 24.064 3.52 24.12 3.168 24.12C2.8 24.12 2.504 24.016 2.28 23.808C2.072 23.6 1.968 23.304 1.968 22.92V8.184C1.968 7.816 2.08 7.52 2.304 7.296C2.528 7.072 2.824 6.96 3.192 6.96C3.56 6.96 3.856 7.072 4.08 7.296C4.304 7.52 4.416 7.816 4.416 8.184V20.304L13.584 7.656ZM21.0435 24.12C20.6755 24.12 20.3795 24.016 20.1555 23.808C19.9315 23.6 19.8195 23.32 19.8195 22.968V13.2C19.8195 12.848 19.9315 12.568 20.1555 12.36C20.3795 12.152 20.6755 12.048 21.0435 12.048C21.4115 12.048 21.6995 12.152 21.9075 12.36C22.1315 12.568 22.2435 12.848 22.2435 13.2V17.04H28.0035V13.2C28.0035 12.848 28.1155 12.568 28.3395 12.36C28.5635 12.152 28.8595 12.048 29.2275 12.048C29.5955 12.048 29.8835 12.152 30.0915 12.36C30.3155 12.568 30.4275 12.848 30.4275 13.2L30.4515 22.896C30.4515 23.264 30.3395 23.56 30.1155 23.784C29.8915 24.008 29.5955 24.12 29.2275 24.12C28.8595 24.12 28.5635 24.008 28.3395 23.784C28.1155 23.56 28.0035 23.264 28.0035 22.896V18.96H22.2435V22.968C22.2435 23.32 22.1315 23.6 21.9075 23.808C21.6995 24.016 21.4115 24.12 21.0435 24.12ZM38.7819 24.168C37.6459 24.168 36.6459 23.92 35.7819 23.424C34.9339 22.928 34.2699 22.224 33.7899 21.312C33.3259 20.4 33.0939 19.344 33.0939 18.144C33.0939 16.928 33.3339 15.856 33.8139 14.928C34.3099 14 34.9979 13.28 35.8779 12.768C36.7579 12.256 37.7659 12 38.9019 12C39.5099 12 40.1179 12.088 40.7259 12.264C41.3499 12.44 41.9019 12.68 42.3819 12.984C42.8939 13.336 43.1499 13.744 43.1499 14.208C43.1499 14.48 43.0779 14.712 42.9339 14.904C42.7899 15.08 42.6059 15.168 42.3819 15.168C42.2379 15.168 42.0939 15.136 41.9499 15.072C41.8059 14.992 41.6219 14.88 41.3979 14.736C40.9979 14.48 40.6219 14.288 40.2699 14.16C39.9339 14.016 39.5259 13.944 39.0459 13.944C37.9579 13.944 37.1099 14.312 36.5019 15.048C35.9099 15.784 35.6139 16.808 35.6139 18.12C35.6139 19.432 35.9099 20.448 36.5019 21.168C37.0939 21.872 37.9339 22.224 39.0219 22.224C39.5019 22.224 39.9259 22.152 40.2939 22.008C40.6619 21.864 41.0379 21.672 41.4219 21.432C41.5979 21.32 41.7739 21.224 41.9499 21.144C42.1259 21.064 42.2859 21.024 42.4299 21.024C42.6539 21.024 42.8379 21.12 42.9819 21.312C43.1259 21.488 43.1979 21.712 43.1979 21.984C43.1979 22.208 43.1339 22.416 43.0059 22.608C42.8939 22.784 42.6939 22.968 42.4059 23.16C41.9259 23.48 41.3659 23.728 40.7259 23.904C40.0859 24.08 39.4379 24.168 38.7819 24.168ZM49.2315 24.12C48.8635 24.12 48.5675 24.016 48.3435 23.808C48.1195 23.6 48.0075 23.32 48.0075 22.968V14.16H44.8875C44.5995 14.16 44.3675 14.072 44.1915 13.896C44.0155 13.72 43.9275 13.496 43.9275 13.224C43.9275 12.952 44.0155 12.728 44.1915 12.552C44.3675 12.376 44.5995 12.288 44.8875 12.288H53.5515C53.8555 12.288 54.0955 12.376 54.2715 12.552C54.4475 12.728 54.5355 12.952 54.5355 13.224C54.5355 13.496 54.4475 13.72 54.2715 13.896C54.0955 14.072 53.8555 14.16 53.5515 14.16H50.4315V22.968C50.4315 23.32 50.3195 23.6 50.0955 23.808C49.8875 24.016 49.5995 24.12 49.2315 24.12ZM64.422 12.912C64.646 12.592 64.862 12.368 65.07 12.24C65.278 12.112 65.558 12.048 65.91 12.048C66.294 12.048 66.598 12.16 66.822 12.384C67.046 12.592 67.158 12.88 67.158 13.248V22.944C67.158 23.296 67.054 23.584 66.846 23.808C66.638 24.016 66.358 24.12 66.006 24.12C65.67 24.12 65.39 24.016 65.166 23.808C64.958 23.584 64.854 23.296 64.854 22.944V15.312L59.094 23.304C58.87 23.624 58.646 23.84 58.422 23.952C58.214 24.064 57.95 24.12 57.63 24.12C57.262 24.12 56.958 24.016 56.718 23.808C56.494 23.584 56.382 23.296 56.382 22.944V13.224C56.382 12.888 56.486 12.608 56.694 12.384C56.918 12.16 57.206 12.048 57.558 12.048C57.894 12.048 58.166 12.16 58.374 12.384C58.598 12.608 58.71 12.888 58.71 13.224V20.784L64.422 12.912ZM74.3565 24.12C73.9885 24.12 73.6925 24.016 73.4685 23.808C73.2445 23.6 73.1325 23.32 73.1325 22.968V14.16H70.0125C69.7245 14.16 69.4925 14.072 69.3165 13.896C69.1405 13.72 69.0525 13.496 69.0525 13.224C69.0525 12.952 69.1405 12.728 69.3165 12.552C69.4925 12.376 69.7245 12.288 70.0125 12.288H78.6765C78.9805 12.288 79.2205 12.376 79.3965 12.552C79.5725 12.728 79.6605 12.952 79.6605 13.224C79.6605 13.496 79.5725 13.72 79.3965 13.896C79.2205 14.072 78.9805 14.16 78.6765 14.16H75.5565V22.968C75.5565 23.32 75.4445 23.6 75.2205 23.808C75.0125 24.016 74.7245 24.12 74.3565 24.12ZM90.0002 12.768C90.0962 12.528 90.2322 12.352 90.4082 12.24C90.6002 12.128 90.8002 12.072 91.0082 12.072C91.3122 12.072 91.5762 12.176 91.8002 12.384C92.0402 12.592 92.1602 12.84 92.1602 13.128C92.1602 13.288 92.1282 13.44 92.0642 13.584L85.3922 27.744C85.2962 27.968 85.1522 28.136 84.9602 28.248C84.7842 28.376 84.5922 28.44 84.3842 28.44C84.0962 28.44 83.8322 28.344 83.5922 28.152C83.3682 27.96 83.2562 27.72 83.2562 27.432C83.2562 27.304 83.2962 27.144 83.3762 26.952L85.0322 23.424L80.4002 13.584C80.3362 13.456 80.3042 13.312 80.3042 13.152C80.3042 12.848 80.4322 12.592 80.6882 12.384C80.9442 12.176 81.2322 12.072 81.5522 12.072C82.0322 12.072 82.3762 12.296 82.5842 12.744L86.3042 21L90.0002 12.768ZM98.2159 24.12C97.8479 24.12 97.5519 24.016 97.3279 23.808C97.1039 23.6 96.9919 23.32 96.9919 22.968V14.16H93.8719C93.5839 14.16 93.3519 14.072 93.1759 13.896C92.9999 13.72 92.9119 13.496 92.9119 13.224C92.9119 12.952 92.9999 12.728 93.1759 12.552C93.3519 12.376 93.5839 12.288 93.8719 12.288H102.536C102.84 12.288 103.08 12.376 103.256 12.552C103.432 12.728 103.52 12.952 103.52 13.224C103.52 13.496 103.432 13.72 103.256 13.896C103.08 14.072 102.84 14.16 102.536 14.16H99.4159V22.968C99.4159 23.32 99.3039 23.6 99.0799 23.808C98.8719 24.016 98.5839 24.12 98.2159 24.12ZM112.919 24.12C112.551 24.12 112.255 24.016 112.031 23.808C111.807 23.6 111.695 23.32 111.695 22.968V13.536C111.695 13.152 111.799 12.848 112.007 12.624C112.215 12.4 112.503 12.288 112.871 12.288H120.911C121.295 12.288 121.599 12.392 121.823 12.6C122.047 12.808 122.159 13.096 122.159 13.464V22.968C122.159 23.32 122.047 23.6 121.823 23.808C121.599 24.016 121.303 24.12 120.935 24.12C120.567 24.12 120.271 24.016 120.047 23.808C119.839 23.6 119.735 23.32 119.735 22.968V14.16H114.119V22.968C114.119 23.32 114.007 23.6 113.783 23.808C113.575 24.016 113.287 24.12 112.919 24.12ZM129.101 15.456C129.101 17.936 128.821 19.848 128.261 21.192C127.717 22.52 126.861 23.48 125.693 24.072C125.549 24.136 125.381 24.168 125.189 24.168C124.901 24.168 124.661 24.08 124.469 23.904C124.277 23.712 124.181 23.488 124.181 23.232C124.181 23.04 124.237 22.856 124.349 22.68C124.461 22.488 124.613 22.336 124.805 22.224C125.333 21.92 125.741 21.512 126.029 21C126.333 20.472 126.549 19.776 126.677 18.912C126.805 18.048 126.869 16.912 126.869 15.504V13.536C126.869 13.152 126.973 12.848 127.181 12.624C127.389 12.4 127.677 12.288 128.045 12.288H134.381C134.765 12.288 135.069 12.392 135.293 12.6C135.517 12.808 135.629 13.096 135.629 13.464V22.968C135.629 23.32 135.517 23.6 135.293 23.808C135.085 24.016 134.797 24.12 134.429 24.12C134.061 24.12 133.765 24.016 133.541 23.808C133.317 23.6 133.205 23.32 133.205 22.968V14.16H129.101V15.456ZM143.85 12C145.402 12 146.554 12.392 147.306 13.176C148.074 13.96 148.458 15.152 148.458 16.752V22.968C148.458 23.336 148.354 23.624 148.146 23.832C147.938 24.024 147.65 24.12 147.282 24.12C146.93 24.12 146.65 24.016 146.442 23.808C146.234 23.6 146.13 23.32 146.13 22.968V22.08C145.826 22.752 145.37 23.272 144.762 23.64C144.17 23.992 143.474 24.168 142.674 24.168C141.906 24.168 141.202 24.016 140.562 23.712C139.938 23.392 139.442 22.96 139.074 22.416C138.706 21.872 138.522 21.256 138.522 20.568C138.506 19.704 138.722 19.032 139.17 18.552C139.618 18.056 140.346 17.704 141.354 17.496C142.362 17.272 143.762 17.16 145.554 17.16H146.106V16.464C146.106 15.568 145.922 14.92 145.554 14.52C145.186 14.12 144.594 13.92 143.778 13.92C143.218 13.92 142.69 13.992 142.194 14.136C141.698 14.28 141.154 14.488 140.562 14.76C140.13 15 139.826 15.12 139.65 15.12C139.41 15.12 139.21 15.032 139.05 14.856C138.906 14.68 138.834 14.456 138.834 14.184C138.834 13.944 138.898 13.736 139.026 13.56C139.17 13.368 139.394 13.184 139.698 13.008C140.258 12.704 140.914 12.464 141.666 12.288C142.418 12.096 143.146 12 143.85 12ZM143.106 22.368C143.986 22.368 144.706 22.072 145.266 21.48C145.826 20.872 146.106 20.096 146.106 19.152V18.528H145.674C144.426 18.528 143.466 18.584 142.794 18.696C142.122 18.808 141.642 19 141.354 19.272C141.066 19.528 140.922 19.904 140.922 20.4C140.922 20.976 141.13 21.448 141.546 21.816C141.962 22.184 142.482 22.368 143.106 22.368ZM156.79 24.168C155.654 24.168 154.654 23.92 153.79 23.424C152.942 22.928 152.278 22.224 151.798 21.312C151.334 20.4 151.102 19.344 151.102 18.144C151.102 16.928 151.342 15.856 151.822 14.928C152.318 14 153.006 13.28 153.886 12.768C154.766 12.256 155.774 12 156.91 12C157.518 12 158.126 12.088 158.734 12.264C159.358 12.44 159.91 12.68 160.39 12.984C160.902 13.336 161.158 13.744 161.158 14.208C161.158 14.48 161.086 14.712 160.942 14.904C160.798 15.08 160.614 15.168 160.39 15.168C160.246 15.168 160.102 15.136 159.958 15.072C159.814 14.992 159.63 14.88 159.406 14.736C159.006 14.48 158.63 14.288 158.278 14.16C157.942 14.016 157.534 13.944 157.054 13.944C155.966 13.944 155.118 14.312 154.51 15.048C153.918 15.784 153.622 16.808 153.622 18.12C153.622 19.432 153.918 20.448 154.51 21.168C155.102 21.872 155.942 22.224 157.03 22.224C157.51 22.224 157.934 22.152 158.302 22.008C158.67 21.864 159.046 21.672 159.43 21.432C159.606 21.32 159.782 21.224 159.958 21.144C160.134 21.064 160.294 21.024 160.438 21.024C160.662 21.024 160.846 21.12 160.99 21.312C161.134 21.488 161.206 21.712 161.206 21.984C161.206 22.208 161.142 22.416 161.014 22.608C160.902 22.784 160.702 22.968 160.414 23.16C159.934 23.48 159.374 23.728 158.734 23.904C158.094 24.08 157.446 24.168 156.79 24.168ZM167.239 24.12C166.871 24.12 166.575 24.016 166.351 23.808C166.127 23.6 166.015 23.32 166.015 22.968V14.16H162.895C162.607 14.16 162.375 14.072 162.199 13.896C162.023 13.72 161.935 13.496 161.935 13.224C161.935 12.952 162.023 12.728 162.199 12.552C162.375 12.376 162.607 12.288 162.895 12.288H171.559C171.863 12.288 172.103 12.376 172.279 12.552C172.455 12.728 172.543 12.952 172.543 13.224C172.543 13.496 172.455 13.72 172.279 13.896C172.103 14.072 171.863 14.16 171.559 14.16H168.439V22.968C168.439 23.32 168.327 23.6 168.103 23.808C167.895 24.016 167.607 24.12 167.239 24.12ZM185.598 12.048C185.982 12.048 186.286 12.152 186.51 12.36C186.734 12.568 186.846 12.856 186.846 13.224V23.016C186.846 23.336 186.742 23.6 186.534 23.808C186.326 24.016 186.054 24.12 185.718 24.12C185.398 24.12 185.126 24.016 184.902 23.808C184.694 23.6 184.59 23.328 184.59 22.992L184.614 16.056L181.71 21.408C181.598 21.616 181.446 21.784 181.254 21.912C181.062 22.024 180.854 22.08 180.63 22.08C180.39 22.08 180.174 22.024 179.982 21.912C179.79 21.784 179.638 21.616 179.526 21.408L176.622 16.056L176.646 22.992C176.646 23.328 176.534 23.6 176.31 23.808C176.102 24.016 175.838 24.12 175.518 24.12C175.182 24.12 174.91 24.016 174.702 23.808C174.494 23.6 174.39 23.336 174.39 23.016V13.296C174.39 12.928 174.494 12.632 174.702 12.408C174.926 12.168 175.214 12.048 175.566 12.048C175.886 12.048 176.158 12.104 176.382 12.216C176.622 12.328 176.822 12.552 176.982 12.888L180.63 19.752L184.182 13.008C184.374 12.656 184.574 12.408 184.782 12.264C184.99 12.12 185.262 12.048 185.598 12.048ZM195.084 12C196.636 12 197.788 12.392 198.54 13.176C199.308 13.96 199.692 15.152 199.692 16.752V22.968C199.692 23.336 199.588 23.624 199.38 23.832C199.172 24.024 198.884 24.12 198.516 24.12C198.164 24.12 197.884 24.016 197.676 23.808C197.468 23.6 197.364 23.32 197.364 22.968V22.08C197.06 22.752 196.604 23.272 195.996 23.64C195.404 23.992 194.708 24.168 193.908 24.168C193.14 24.168 192.436 24.016 191.796 23.712C191.172 23.392 190.676 22.96 190.308 22.416C189.94 21.872 189.756 21.256 189.756 20.568C189.74 19.704 189.956 19.032 190.404 18.552C190.852 18.056 191.58 17.704 192.588 17.496C193.596 17.272 194.996 17.16 196.788 17.16H197.34V16.464C197.34 15.568 197.156 14.92 196.788 14.52C196.42 14.12 195.828 13.92 195.012 13.92C194.452 13.92 193.924 13.992 193.428 14.136C192.932 14.28 192.388 14.488 191.796 14.76C191.364 15 191.06 15.12 190.884 15.12C190.644 15.12 190.444 15.032 190.284 14.856C190.14 14.68 190.068 14.456 190.068 14.184C190.068 13.944 190.132 13.736 190.26 13.56C190.404 13.368 190.628 13.184 190.932 13.008C191.492 12.704 192.148 12.464 192.9 12.288C193.652 12.096 194.38 12 195.084 12ZM194.34 22.368C195.22 22.368 195.94 22.072 196.5 21.48C197.06 20.872 197.34 20.096 197.34 19.152V18.528H196.908C195.66 18.528 194.7 18.584 194.028 18.696C193.356 18.808 192.876 19 192.588 19.272C192.3 19.528 192.156 19.904 192.156 20.4C192.156 20.976 192.364 21.448 192.78 21.816C193.196 22.184 193.716 22.368 194.34 22.368ZM208.024 24.168C206.888 24.168 205.888 23.92 205.024 23.424C204.176 22.928 203.512 22.224 203.032 21.312C202.568 20.4 202.336 19.344 202.336 18.144C202.336 16.928 202.576 15.856 203.056 14.928C203.552 14 204.24 13.28 205.12 12.768C206 12.256 207.008 12 208.144 12C208.752 12 209.36 12.088 209.968 12.264C210.592 12.44 211.144 12.68 211.624 12.984C212.136 13.336 212.392 13.744 212.392 14.208C212.392 14.48 212.32 14.712 212.176 14.904C212.032 15.08 211.848 15.168 211.624 15.168C211.48 15.168 211.336 15.136 211.192 15.072C211.048 14.992 210.864 14.88 210.64 14.736C210.24 14.48 209.864 14.288 209.512 14.16C209.176 14.016 208.768 13.944 208.288 13.944C207.2 13.944 206.352 14.312 205.744 15.048C205.152 15.784 204.856 16.808 204.856 18.12C204.856 19.432 205.152 20.448 205.744 21.168C206.336 21.872 207.176 22.224 208.264 22.224C208.744 22.224 209.168 22.152 209.536 22.008C209.904 21.864 210.28 21.672 210.664 21.432C210.84 21.32 211.016 21.224 211.192 21.144C211.368 21.064 211.528 21.024 211.672 21.024C211.896 21.024 212.08 21.12 212.224 21.312C212.368 21.488 212.44 21.712 212.44 21.984C212.44 22.208 212.376 22.416 212.248 22.608C212.136 22.784 211.936 22.968 211.648 23.16C211.168 23.48 210.608 23.728 209.968 23.904C209.328 24.08 208.68 24.168 208.024 24.168ZM219.626 24.168C218.49 24.168 217.49 23.92 216.626 23.424C215.778 22.928 215.114 22.224 214.634 21.312C214.17 20.4 213.938 19.344 213.938 18.144C213.938 16.928 214.178 15.856 214.658 14.928C215.154 14 215.842 13.28 216.722 12.768C217.602 12.256 218.61 12 219.746 12C220.354 12 220.962 12.088 221.57 12.264C222.194 12.44 222.746 12.68 223.226 12.984C223.738 13.336 223.994 13.744 223.994 14.208C223.994 14.48 223.922 14.712 223.778 14.904C223.634 15.08 223.45 15.168 223.226 15.168C223.082 15.168 222.938 15.136 222.794 15.072C222.65 14.992 222.466 14.88 222.242 14.736C221.842 14.48 221.466 14.288 221.114 14.16C220.778 14.016 220.37 13.944 219.89 13.944C218.802 13.944 217.954 14.312 217.346 15.048C216.754 15.784 216.458 16.808 216.458 18.12C216.458 19.432 216.754 20.448 217.346 21.168C217.938 21.872 218.778 22.224 219.866 22.224C220.346 22.224 220.77 22.152 221.138 22.008C221.506 21.864 221.882 21.672 222.266 21.432C222.442 21.32 222.618 21.224 222.794 21.144C222.97 21.064 223.13 21.024 223.274 21.024C223.498 21.024 223.682 21.12 223.826 21.312C223.97 21.488 224.042 21.712 224.042 21.984C224.042 22.208 223.978 22.416 223.85 22.608C223.738 22.784 223.538 22.968 223.25 23.16C222.77 23.48 222.21 23.728 221.57 23.904C220.93 24.08 220.282 24.168 219.626 24.168Z" fill="white"/>
<path d="M5.956 30.348C6.036 30.236 6.12 30.156 6.208 30.108C6.296 30.06 6.4 30.036 6.52 30.036C6.672 30.036 6.792 30.084 6.88 30.18C6.976 30.276 7.024 30.396 7.024 30.54V35.592C7.024 35.728 6.98 35.84 6.892 35.928C6.804 36.016 6.692 36.06 6.556 36.06C6.428 36.06 6.316 36.016 6.22 35.928C6.132 35.832 6.088 35.72 6.088 35.592V31.404L2.932 35.772C2.796 35.964 2.616 36.06 2.392 36.06C2.24 36.06 2.116 36.016 2.02 35.928C1.924 35.832 1.876 35.712 1.876 35.568V30.516C1.876 30.38 1.92 30.268 2.008 30.18C2.104 30.084 2.22 30.036 2.356 30.036C2.492 30.036 2.604 30.084 2.692 30.18C2.78 30.268 2.824 30.38 2.824 30.516V34.644L5.956 30.348ZM14.2741 30.036C14.4261 30.036 14.5461 30.08 14.6341 30.168C14.7301 30.256 14.7781 30.376 14.7781 30.528V35.604C14.7781 35.74 14.7341 35.852 14.6461 35.94C14.5661 36.02 14.4581 36.06 14.3221 36.06C14.1861 36.06 14.0741 36.02 13.9861 35.94C13.9061 35.852 13.8661 35.74 13.8661 35.604L13.8781 31.704L12.2221 34.8C12.1821 34.88 12.1221 34.944 12.0421 34.992C11.9701 35.04 11.8861 35.064 11.7901 35.064C11.6941 35.064 11.6061 35.04 11.5261 34.992C11.4541 34.944 11.3981 34.88 11.3581 34.8L9.69006 31.704L9.70206 35.604C9.70206 35.74 9.65806 35.852 9.57006 35.94C9.49006 36.02 9.38206 36.06 9.24606 36.06C9.11006 36.06 8.99806 36.02 8.91006 35.94C8.83006 35.852 8.79006 35.74 8.79006 35.604V30.54C8.79006 30.388 8.83406 30.268 8.92206 30.18C9.01006 30.084 9.13006 30.036 9.28206 30.036C9.52206 30.036 9.69806 30.144 9.81006 30.36L11.7901 34.08L13.7461 30.384C13.8661 30.152 14.0421 30.036 14.2741 30.036ZM21.0724 34.644C21.1604 34.644 21.2364 34.68 21.3004 34.752C21.3644 34.824 21.3964 34.916 21.3964 35.028C21.3964 35.228 21.2564 35.412 20.9764 35.58C20.6884 35.748 20.3844 35.876 20.0644 35.964C19.7444 36.044 19.4324 36.084 19.1284 36.084C18.2244 36.084 17.5084 35.816 16.9804 35.28C16.4604 34.744 16.2004 34.004 16.2004 33.06C16.2004 32.46 16.3164 31.932 16.5484 31.476C16.7804 31.012 17.1044 30.652 17.5204 30.396C17.9444 30.14 18.4244 30.012 18.9604 30.012C19.7204 30.012 20.3244 30.26 20.7724 30.756C21.2204 31.252 21.4444 31.924 21.4444 32.772C21.4444 32.932 21.4124 33.048 21.3484 33.12C21.2844 33.192 21.1804 33.228 21.0364 33.228H17.1724C17.2444 34.604 17.8964 35.292 19.1284 35.292C19.4404 35.292 19.7084 35.252 19.9324 35.172C20.1564 35.084 20.3964 34.968 20.6524 34.824C20.8604 34.704 21.0004 34.644 21.0724 34.644ZM18.9724 30.768C18.4604 30.768 18.0484 30.928 17.7364 31.248C17.4324 31.568 17.2524 32.02 17.1964 32.604H20.5924C20.5764 32.012 20.4284 31.56 20.1484 31.248C19.8684 30.928 19.4764 30.768 18.9724 30.768ZM23.3446 36.06C23.1926 36.06 23.0726 36.02 22.9846 35.94C22.8966 35.852 22.8526 35.736 22.8526 35.592V30.516C22.8526 30.372 22.8966 30.256 22.9846 30.168C23.0726 30.08 23.1926 30.036 23.3446 30.036C23.4886 30.036 23.6046 30.08 23.6926 30.168C23.7806 30.256 23.8246 30.372 23.8246 30.516V32.604H26.9686V30.516C26.9686 30.372 27.0126 30.256 27.1006 30.168C27.1966 30.08 27.3166 30.036 27.4606 30.036C27.6046 30.036 27.7206 30.08 27.8086 30.168C27.8966 30.256 27.9406 30.372 27.9406 30.516L27.9526 35.568C27.9526 35.72 27.9086 35.84 27.8206 35.928C27.7326 36.016 27.6126 36.06 27.4606 36.06C27.3166 36.06 27.1966 36.016 27.1006 35.928C27.0126 35.84 26.9686 35.72 26.9686 35.568V33.384H23.8246V35.592C23.8246 35.736 23.7806 35.852 23.6926 35.94C23.6046 36.02 23.4886 36.06 23.3446 36.06ZM33.788 30.348C33.868 30.236 33.952 30.156 34.04 30.108C34.128 30.06 34.232 30.036 34.352 30.036C34.504 30.036 34.624 30.084 34.712 30.18C34.808 30.276 34.856 30.396 34.856 30.54V35.592C34.856 35.728 34.812 35.84 34.724 35.928C34.636 36.016 34.524 36.06 34.388 36.06C34.26 36.06 34.148 36.016 34.052 35.928C33.964 35.832 33.92 35.72 33.92 35.592V31.404L30.764 35.772C30.628 35.964 30.448 36.06 30.224 36.06C30.072 36.06 29.948 36.016 29.852 35.928C29.756 35.832 29.708 35.712 29.708 35.568V30.516C29.708 30.38 29.752 30.268 29.84 30.18C29.936 30.084 30.052 30.036 30.188 30.036C30.324 30.036 30.436 30.084 30.524 30.18C30.612 30.268 30.656 30.38 30.656 30.516V34.644L33.788 30.348ZM40.3638 36.06C40.2198 36.06 40.1038 36.016 40.0158 35.928C39.9278 35.84 39.8838 35.72 39.8838 35.568V28.02C39.8838 27.876 39.9278 27.76 40.0158 27.672C40.1038 27.584 40.2198 27.54 40.3638 27.54H44.7678C44.8958 27.54 44.9958 27.58 45.0678 27.66C45.1478 27.732 45.1878 27.828 45.1878 27.948C45.1878 28.076 45.1478 28.18 45.0678 28.26C44.9958 28.332 44.8958 28.368 44.7678 28.368H40.8558V35.568C40.8558 35.72 40.8118 35.84 40.7238 35.928C40.6358 36.016 40.5158 36.06 40.3638 36.06ZM46.7941 36.06C46.6021 36.06 46.4421 36 46.3141 35.88C46.1861 35.752 46.1221 35.588 46.1221 35.388C46.1221 35.188 46.1861 35.024 46.3141 34.896C46.4421 34.768 46.6021 34.704 46.7941 34.704C46.9781 34.704 47.1301 34.768 47.2501 34.896C47.3781 35.024 47.4421 35.188 47.4421 35.388C47.4421 35.588 47.3781 35.752 47.2501 35.88C47.1301 36 46.9781 36.06 46.7941 36.06ZM52.4133 36.096C51.6133 36.096 50.9213 35.924 50.3373 35.58C49.7533 35.228 49.3013 34.728 48.9813 34.08C48.6693 33.424 48.5133 32.652 48.5133 31.764C48.5133 30.884 48.6693 30.12 48.9813 29.472C49.3013 28.816 49.7533 28.316 50.3373 27.972C50.9213 27.62 51.6133 27.444 52.4133 27.444C52.9493 27.444 53.4533 27.532 53.9253 27.708C54.4053 27.876 54.8213 28.12 55.1733 28.44C55.3013 28.56 55.3653 28.7 55.3653 28.86C55.3653 28.972 55.3333 29.072 55.2693 29.16C55.2053 29.24 55.1293 29.28 55.0413 29.28C54.9453 29.28 54.8293 29.236 54.6933 29.148C54.2853 28.828 53.9133 28.604 53.5773 28.476C53.2493 28.348 52.8693 28.284 52.4373 28.284C51.5093 28.284 50.7933 28.588 50.2893 29.196C49.7933 29.796 49.5452 30.652 49.5452 31.764C49.5452 32.884 49.7933 33.748 50.2893 34.356C50.7933 34.956 51.5093 35.256 52.4373 35.256C52.8613 35.256 53.2413 35.192 53.5773 35.064C53.9133 34.936 54.2853 34.712 54.6933 34.392C54.8293 34.304 54.9453 34.26 55.0413 34.26C55.1293 34.26 55.2053 34.3 55.2693 34.38C55.3333 34.46 55.3653 34.56 55.3653 34.68C55.3653 34.84 55.3013 34.98 55.1733 35.1C54.8213 35.42 54.4053 35.668 53.9253 35.844C53.4533 36.012 52.9493 36.096 52.4133 36.096ZM57.3995 36.06C57.2075 36.06 57.0475 36 56.9195 35.88C56.7915 35.752 56.7275 35.588 56.7275 35.388C56.7275 35.188 56.7915 35.024 56.9195 34.896C57.0475 34.768 57.2075 34.704 57.3995 34.704C57.5835 34.704 57.7355 34.768 57.8555 34.896C57.9835 35.024 58.0475 35.188 58.0475 35.388C58.0475 35.588 57.9835 35.752 57.8555 35.88C57.7355 36 57.5835 36.06 57.3995 36.06ZM63.3795 36.06C63.2355 36.06 63.1195 36.016 63.0315 35.928C62.9435 35.832 62.8995 35.708 62.8995 35.556V28.032C62.8995 27.888 62.9435 27.772 63.0315 27.684C63.1275 27.588 63.2515 27.54 63.4035 27.54H69.2595C69.4115 27.54 69.5315 27.588 69.6195 27.684C69.7075 27.772 69.7515 27.888 69.7515 28.032V35.568C69.7515 35.72 69.7075 35.84 69.6195 35.928C69.5315 36.016 69.4155 36.06 69.2715 36.06C69.1195 36.06 68.9995 36.016 68.9115 35.928C68.8235 35.84 68.7795 35.72 68.7795 35.568V28.368H63.8715V35.568C63.8715 35.72 63.8275 35.84 63.7395 35.928C63.6515 36.016 63.5315 36.06 63.3795 36.06ZM76.2209 34.644C76.3089 34.644 76.3849 34.68 76.4489 34.752C76.5129 34.824 76.5449 34.916 76.5449 35.028C76.5449 35.228 76.4049 35.412 76.1249 35.58C75.8369 35.748 75.5329 35.876 75.2129 35.964C74.8929 36.044 74.5809 36.084 74.2769 36.084C73.3729 36.084 72.6569 35.816 72.1289 35.28C71.6089 34.744 71.3489 34.004 71.3489 33.06C71.3489 32.46 71.4649 31.932 71.6969 31.476C71.9289 31.012 72.2529 30.652 72.6689 30.396C73.0929 30.14 73.5729 30.012 74.1089 30.012C74.8689 30.012 75.4729 30.26 75.9209 30.756C76.3689 31.252 76.5929 31.924 76.5929 32.772C76.5929 32.932 76.5609 33.048 76.4969 33.12C76.4329 33.192 76.3289 33.228 76.1849 33.228H72.3209C72.3929 34.604 73.0449 35.292 74.2769 35.292C74.5889 35.292 74.8569 35.252 75.0809 35.172C75.3049 35.084 75.5449 34.968 75.8009 34.824C76.0089 34.704 76.1489 34.644 76.2209 34.644ZM74.1209 30.768C73.6089 30.768 73.1969 30.928 72.8849 31.248C72.5809 31.568 72.4009 32.02 72.3449 32.604H75.7409C75.7249 32.012 75.5769 31.56 75.2969 31.248C75.0169 30.928 74.6249 30.768 74.1209 30.768ZM79.7778 36.06C79.6338 36.06 79.5178 36.02 79.4298 35.94C79.3418 35.852 79.2978 35.736 79.2978 35.592V30.924H77.5818C77.4618 30.924 77.3658 30.888 77.2938 30.816C77.2218 30.744 77.1858 30.652 77.1858 30.54C77.1858 30.428 77.2218 30.336 77.2938 30.264C77.3658 30.192 77.4618 30.156 77.5818 30.156H81.9738C82.0938 30.156 82.1898 30.192 82.2618 30.264C82.3338 30.336 82.3698 30.428 82.3698 30.54C82.3698 30.652 82.3338 30.744 82.2618 30.816C82.1898 30.888 82.0938 30.924 81.9738 30.924H80.2698V35.592C80.2698 35.736 80.2218 35.852 80.1258 35.94C80.0378 36.02 79.9218 36.06 79.7778 36.06ZM86.3088 30.012C86.8208 30.012 87.2728 30.14 87.6648 30.396C88.0568 30.652 88.3608 31.012 88.5768 31.476C88.7928 31.932 88.9008 32.464 88.9008 33.072C88.9008 33.68 88.7928 34.212 88.5768 34.668C88.3608 35.116 88.0568 35.464 87.6648 35.712C87.2808 35.96 86.8288 36.084 86.3088 36.084C85.8528 36.084 85.4528 35.984 85.1088 35.784C84.7728 35.584 84.5168 35.3 84.3408 34.932V37.752C84.3408 37.896 84.2968 38.008 84.2088 38.088C84.1288 38.176 84.0128 38.22 83.8608 38.22C83.7088 38.22 83.5888 38.176 83.5008 38.088C83.4128 38 83.3688 37.888 83.3688 37.752V30.516C83.3688 30.372 83.4128 30.256 83.5008 30.168C83.5888 30.08 83.7088 30.036 83.8608 30.036C84.0128 30.036 84.1288 30.08 84.2088 30.168C84.2968 30.256 84.3408 30.372 84.3408 30.516V31.164C84.5168 30.796 84.7728 30.512 85.1088 30.312C85.4528 30.112 85.8528 30.012 86.3088 30.012ZM86.1168 35.28C86.6848 35.28 87.1248 35.088 87.4368 34.704C87.7488 34.32 87.9048 33.776 87.9048 33.072C87.9048 32.368 87.7488 31.82 87.4368 31.428C87.1248 31.028 86.6848 30.828 86.1168 30.828C85.5488 30.828 85.1088 31.02 84.7968 31.404C84.4928 31.788 84.3408 32.336 84.3408 33.048C84.3408 33.76 84.4928 34.312 84.7968 34.704C85.1088 35.088 85.5488 35.28 86.1168 35.28ZM92.7771 36.084C92.2251 36.084 91.7371 35.96 91.3131 35.712C90.8971 35.464 90.5731 35.112 90.3411 34.656C90.1171 34.192 90.0051 33.656 90.0051 33.048C90.0051 32.44 90.1171 31.908 90.3411 31.452C90.5731 30.988 90.8971 30.632 91.3131 30.384C91.7371 30.136 92.2251 30.012 92.7771 30.012C93.3291 30.012 93.8171 30.136 94.2411 30.384C94.6651 30.632 94.9891 30.988 95.2131 31.452C95.4451 31.908 95.5611 32.44 95.5611 33.048C95.5611 33.656 95.4451 34.192 95.2131 34.656C94.9891 35.112 94.6651 35.464 94.2411 35.712C93.8171 35.96 93.3291 36.084 92.7771 36.084ZM92.7771 35.28C93.3531 35.28 93.7931 35.092 94.0971 34.716C94.4091 34.332 94.5651 33.776 94.5651 33.048C94.5651 32.336 94.4091 31.788 94.0971 31.404C93.7851 31.012 93.3451 30.816 92.7771 30.816C92.2091 30.816 91.7691 31.012 91.4571 31.404C91.1451 31.788 90.9891 32.336 90.9891 33.048C90.9891 33.768 91.1411 34.32 91.4451 34.704C91.7571 35.088 92.2011 35.28 92.7771 35.28ZM97.4894 36C97.3374 36 97.2134 35.956 97.1174 35.868C97.0294 35.78 96.9854 35.664 96.9854 35.52V30.66C96.9854 30.508 97.0294 30.388 97.1174 30.3C97.2054 30.204 97.3254 30.156 97.4774 30.156H99.5534C100.193 30.156 100.689 30.28 101.041 30.528C101.393 30.776 101.569 31.148 101.569 31.644C101.569 31.932 101.485 32.2 101.317 32.448C101.149 32.696 100.893 32.88 100.549 33C100.909 33.064 101.193 33.216 101.401 33.456C101.617 33.696 101.725 34 101.725 34.368C101.725 34.64 101.649 34.9 101.497 35.148C101.353 35.396 101.121 35.6 100.801 35.76C100.481 35.92 100.081 36 99.6014 36H97.4894ZM99.4814 32.676C99.8174 32.676 100.089 32.592 100.297 32.424C100.505 32.248 100.609 32.012 100.609 31.716C100.609 31.156 100.221 30.876 99.4454 30.876H97.9574V32.676H99.4814ZM99.5054 35.28C100.329 35.28 100.741 34.964 100.741 34.332C100.741 34.012 100.621 33.772 100.381 33.612C100.141 33.452 99.8134 33.372 99.3974 33.372H97.9574V35.28H99.5054ZM105.538 30.012C107.002 30.012 107.734 30.78 107.734 32.316V35.58C107.734 35.724 107.69 35.84 107.602 35.928C107.522 36.016 107.41 36.06 107.266 36.06C107.122 36.06 107.006 36.016 106.918 35.928C106.83 35.84 106.786 35.724 106.786 35.58V35.004C106.634 35.348 106.402 35.616 106.09 35.808C105.778 35.992 105.418 36.084 105.01 36.084C104.634 36.084 104.286 36.008 103.966 35.856C103.654 35.704 103.406 35.492 103.222 35.22C103.038 34.948 102.946 34.648 102.946 34.32C102.946 33.88 103.058 33.54 103.282 33.3C103.506 33.052 103.874 32.876 104.386 32.772C104.898 32.66 105.61 32.604 106.522 32.604H106.786V32.208C106.786 31.728 106.686 31.376 106.486 31.152C106.294 30.928 105.978 30.816 105.538 30.816C104.994 30.816 104.442 30.964 103.882 31.26C103.666 31.396 103.514 31.464 103.426 31.464C103.33 31.464 103.25 31.428 103.186 31.356C103.122 31.284 103.09 31.192 103.09 31.08C103.09 30.968 103.122 30.872 103.186 30.792C103.258 30.704 103.37 30.616 103.522 30.528C103.802 30.368 104.118 30.244 104.47 30.156C104.83 30.06 105.186 30.012 105.538 30.012ZM105.142 35.316C105.622 35.316 106.014 35.156 106.318 34.836C106.63 34.508 106.786 34.088 106.786 33.576V33.228H106.57C105.866 33.228 105.33 33.26 104.962 33.324C104.594 33.38 104.33 33.48 104.17 33.624C104.018 33.76 103.942 33.964 103.942 34.236C103.942 34.548 104.054 34.808 104.278 35.016C104.51 35.216 104.798 35.316 105.142 35.316Z" fill="#393939"/>
</svg>
